<svg width="24" height="24" viewBox="0 0 24 24" fill="none" xmlns="http://www.w3.org/2000/svg">
<path d="M11.3691 4.22486C11.7619 3.90451 12.3409 3.92711 12.707 4.29322C13.073 4.65934 13.0957 5.23838 12.7754 5.63111L12.707 5.70729L7.41309 11.0003H19L19.1025 11.0051C19.6067 11.0565 20 11.4826 20 12.0003C19.9999 12.5178 19.6066 12.944 19.1025 12.9954L19 13.0003H7.54688L12.6807 17.7678L12.752 17.8411C13.0863 18.2217 13.0846 18.8016 12.7324 19.1809C12.3802 19.5598 11.8026 19.6041 11.3984 19.2991L11.3193 19.2327L3.55957 12.0266L11.293 4.29322L11.3691 4.22486Z" fill="#222222"/>
</svg>
