<svg width="24" height="24" viewBox="0 0 24 24" fill="none" xmlns="http://www.w3.org/2000/svg">
<path d="M5.33333 12C5.33333 8.3181 8.3181 5.33333 12 5.33333C15.6819 5.33333 18.6667 8.3181 18.6667 12C18.6667 13.4728 19.8606 14.6667 21.3333 14.6667C22.8061 14.6667 24 13.4728 24 12C24 5.37258 18.6274 0 12 0C5.37258 0 0 5.37258 0 12C0 18.6274 5.37258 24 12 24C13.4728 24 14.6667 22.8061 14.6667 21.3333C14.6667 19.8606 13.4728 18.6667 12 18.6667C8.3181 18.6667 5.33333 15.6819 5.33333 12Z" fill="#222222"/>
<path d="M20.4444 24C22.4081 24 24 22.4081 24 20.4444C24 19.4198 23.5666 18.4964 22.8731 17.8476L22.8745 17.8462L22.8649 17.8399C22.5679 17.5638 22.2237 17.3379 21.8456 17.1756L12.683 11.2039C12.4995 11.0463 12.2608 10.9511 12 10.9511C11.4207 10.9511 10.9511 11.4207 10.9511 12C10.9511 12.2608 11.0463 12.4994 11.2039 12.6829L17.1757 21.8457C17.3379 22.2237 17.5638 22.5679 17.8399 22.8649L17.8462 22.8745L17.8476 22.8731C18.4964 23.5666 19.4198 24 20.4444 24Z" fill="#222222"/>
</svg>
