<svg width="18" height="18" viewBox="0 0 18 18" fill="none" xmlns="http://www.w3.org/2000/svg">
<path d="M6.64648 2.64654C6.84175 2.45128 7.15825 2.45128 7.35352 2.64654C7.54873 2.8418 7.54876 3.15832 7.35352 3.35357L6.20703 4.50005H9L9.2041 4.50396C10.2204 4.54168 11.2079 4.86035 12.0557 5.42681C12.9601 6.03116 13.6648 6.89058 14.0811 7.89556C14.4973 8.90051 14.6067 10.0065 14.3945 11.0733C14.1823 12.1401 13.6578 13.1196 12.8887 13.8887C12.1195 14.6579 11.14 15.1823 10.0732 15.3946C9.0064 15.6068 7.90046 15.4973 6.89551 15.0811L6.70898 15.0001C5.78416 14.5763 4.99341 13.9038 4.42676 13.0557C3.82244 12.1513 3.50001 11.0878 3.5 10.0001C3.5 9.72391 3.72386 9.50005 4 9.50005C4.27614 9.50005 4.5 9.72391 4.5 10.0001C4.50001 10.89 4.76433 11.76 5.25879 12.5001C5.75325 13.24 6.45612 13.8167 7.27832 14.1573C8.10051 14.4978 9.00512 14.5868 9.87793 14.4131C10.7508 14.2395 11.5523 13.811 12.1816 13.1817C12.8109 12.5524 13.2394 11.7508 13.4131 10.878C13.5867 10.0052 13.4977 9.10056 13.1572 8.27837C12.8167 7.45617 12.2399 6.7533 11.5 6.25884C10.8526 5.82627 10.1057 5.57017 9.33301 5.51275L9 5.50005H6.20703L7.35352 6.64654L7.41797 6.72466C7.54613 6.91874 7.52438 7.18271 7.35352 7.35357C7.18265 7.52431 6.91864 7.54615 6.72461 7.41802L6.64648 7.35357L4.64648 5.35357C4.62325 5.33034 4.60231 5.30482 4.58398 5.2774L4.58203 5.27544C4.56496 5.24959 4.55081 5.22234 4.53906 5.19439C4.53292 5.1798 4.52911 5.16446 4.52441 5.14947C4.52053 5.13704 4.51558 5.125 4.5127 5.11236C4.50976 5.09959 4.50877 5.08642 4.50684 5.0733C4.50388 5.05315 4.50147 5.03307 4.50098 5.01275C4.50087 5.00852 4.5 5.00431 4.5 5.00005C4.5 4.99451 4.5008 4.98896 4.50098 4.98345C4.50168 4.96284 4.5036 4.94234 4.50684 4.92193C4.50896 4.90839 4.51146 4.89505 4.51465 4.88189C4.51827 4.86699 4.52331 4.85252 4.52832 4.83794V4.83599C4.53182 4.8259 4.53489 4.81562 4.53906 4.80572C4.54059 4.80209 4.54233 4.79856 4.54395 4.79498C4.54954 4.78253 4.55681 4.77089 4.56348 4.75884C4.56766 4.75129 4.57162 4.74369 4.57617 4.73638C4.59597 4.70462 4.61889 4.67414 4.64648 4.64654L6.64648 2.64654Z" fill="#888888"/>
</svg>
